<svg id="visual" viewBox="0 0 450 900" width="450" height="900" xmlns="http://www.w3.org/2000/svg" xmlns:xlink="http://www.w3.org/1999/xlink" version="1.1"><rect x="0" y="0" width="450" height="900" fill="#ffffff"></rect><path d="M0 708L37.5 709.5C75 711 150 714 225 714.8C300 715.7 375 714.3 412.5 713.7L450 713L450 901L412.5 901C375 901 300 901 225 901C150 901 75 901 37.5 901L0 901Z" fill="#44836c"></path><path d="M0 752L37.5 754.2C75 756.3 150 760.7 225 762.2C300 763.7 375 762.3 412.5 761.7L450 761L450 901L412.5 901C375 901 300 901 225 901C150 901 75 901 37.5 901L0 901Z" fill="#519565"></path><path d="M0 805L37.5 804.5C75 804 150 803 225 803C300 803 375 804 412.5 804.5L450 805L450 901L412.5 901C375 901 300 901 225 901C150 901 75 901 37.5 901L0 901Z" fill="#6da557"></path><path d="M0 836L37.5 836.2C75 836.3 150 836.7 225 839.3C300 842 375 847 412.5 849.5L450 852L450 901L412.5 901C375 901 300 901 225 901C150 901 75 901 37.5 901L0 901Z" fill="#93b244"></path></svg>