<svg id="visual" viewBox="0 0 1000 150" width="1000" height="150" xmlns="http://www.w3.org/2000/svg" xmlns:xlink="http://www.w3.org/1999/xlink" version="1.1"><rect x="0" y="0" width="1000" height="150" fill="#001122"></rect><path d="M651 150L651.2 137.5C651.3 125 651.7 100 646.5 75C641.3 50 630.7 25 625.3 12.5L620 0L1000 0L1000 12.5C1000 25 1000 50 1000 75C1000 100 1000 125 1000 137.5L1000 150Z" fill="#44836c"></path><path d="M691 150L691.5 137.5C692 125 693 100 691.5 75C690 50 686 25 684 12.5L682 0L1000 0L1000 12.5C1000 25 1000 50 1000 75C1000 100 1000 125 1000 137.5L1000 150Z" fill="#488b6a"></path><path d="M694 150L696.7 137.5C699.3 125 704.7 100 711.2 75C717.7 50 725.3 25 729.2 12.5L733 0L1000 0L1000 12.5C1000 25 1000 50 1000 75C1000 100 1000 125 1000 137.5L1000 150Z" fill="#4f9267"></path><path d="M758 150L757.8 137.5C757.7 125 757.3 100 763.2 75C769 50 781 25 787 12.5L793 0L1000 0L1000 12.5C1000 25 1000 50 1000 75C1000 100 1000 125 1000 137.5L1000 150Z" fill="#589a62"></path><path d="M821 150L821 137.5C821 125 821 100 815.2 75C809.3 50 797.7 25 791.8 12.5L786 0L1000 0L1000 12.5C1000 25 1000 50 1000 75C1000 100 1000 125 1000 137.5L1000 150Z" fill="#64a05c"></path><path d="M879 150L871.5 137.5C864 125 849 100 845.7 75C842.3 50 850.7 25 854.8 12.5L859 0L1000 0L1000 12.5C1000 25 1000 50 1000 75C1000 100 1000 125 1000 137.5L1000 150Z" fill="#72a755"></path><path d="M904 150L902.5 137.5C901 125 898 100 894.2 75C890.3 50 885.7 25 883.3 12.5L881 0L1000 0L1000 12.5C1000 25 1000 50 1000 75C1000 100 1000 125 1000 137.5L1000 150Z" fill="#82ad4d"></path><path d="M959 150L955.8 137.5C952.7 125 946.3 100 944.8 75C943.3 50 946.7 25 948.3 12.5L950 0L1000 0L1000 12.5C1000 25 1000 50 1000 75C1000 100 1000 125 1000 137.5L1000 150Z" fill="#93b244"></path></svg>