<svg id="visual" viewBox="0 0 960 540" width="960" height="540" xmlns="http://www.w3.org/2000/svg" xmlns:xlink="http://www.w3.org/1999/xlink" version="1.1"><rect x="0" y="0" width="960" height="540" fill="#001122"></rect><path d="M0 358L40 359.7C80 361.3 160 364.7 240 360.8C320 357 400 346 480 344.7C560 343.3 640 351.7 720 346.7C800 341.7 880 323.3 920 314.2L960 305L960 541L920 541C880 541 800 541 720 541C640 541 560 541 480 541C400 541 320 541 240 541C160 541 80 541 40 541L0 541Z" fill="#2f6c66"></path><path d="M0 356L40 361.2C80 366.3 160 376.7 240 376C320 375.3 400 363.7 480 363.8C560 364 640 376 720 377.2C800 378.3 880 368.7 920 363.8L960 359L960 541L920 541C880 541 800 541 720 541C640 541 560 541 480 541C400 541 320 541 240 541C160 541 80 541 40 541L0 541Z" fill="#2e7869"></path><path d="M0 391L40 395.5C80 400 160 409 240 406.3C320 403.7 400 389.3 480 386.7C560 384 640 393 720 398.3C800 403.7 880 405.3 920 406.2L960 407L960 541L920 541C880 541 800 541 720 541C640 541 560 541 480 541C400 541 320 541 240 541C160 541 80 541 40 541L0 541Z" fill="#338369"></path><path d="M0 416L40 412.8C80 409.7 160 403.3 240 399.3C320 395.3 400 393.7 480 398.3C560 403 640 414 720 415.5C800 417 880 409 920 405L960 401L960 541L920 541C880 541 800 541 720 541C640 541 560 541 480 541C400 541 320 541 240 541C160 541 80 541 40 541L0 541Z" fill="#3e8e66"></path><path d="M0 447L40 446C80 445 160 443 240 439.5C320 436 400 431 480 428C560 425 640 424 720 425.3C800 426.7 880 430.3 920 432.2L960 434L960 541L920 541C880 541 800 541 720 541C640 541 560 541 480 541C400 541 320 541 240 541C160 541 80 541 40 541L0 541Z" fill="#4f9860"></path><path d="M0 466L40 466.2C80 466.3 160 466.7 240 465.3C320 464 400 461 480 461.7C560 462.3 640 466.7 720 467.5C800 468.3 880 465.7 920 464.3L960 463L960 541L920 541C880 541 800 541 720 541C640 541 560 541 480 541C400 541 320 541 240 541C160 541 80 541 40 541L0 541Z" fill="#63a258"></path><path d="M0 485L40 487.5C80 490 160 495 240 496.8C320 498.7 400 497.3 480 495.8C560 494.3 640 492.7 720 488.7C800 484.7 880 478.3 920 475.2L960 472L960 541L920 541C880 541 800 541 720 541C640 541 560 541 480 541C400 541 320 541 240 541C160 541 80 541 40 541L0 541Z" fill="#7aaa4e"></path><path d="M0 506L40 507C80 508 160 510 240 510C320 510 400 508 480 507.8C560 507.7 640 509.3 720 510.8C800 512.3 880 513.7 920 514.3L960 515L960 541L920 541C880 541 800 541 720 541C640 541 560 541 480 541C400 541 320 541 240 541C160 541 80 541 40 541L0 541Z" fill="#93b244"></path></svg>